<?xml version="1.0" encoding="UTF-8" standalone="no"?>
<!-- Created with Inkscape (http://www.inkscape.org/) -->

<svg
   xmlns:dc="http://purl.org/dc/elements/1.1/"
   xmlns:cc="http://creativecommons.org/ns#"
   xmlns:rdf="http://www.w3.org/1999/02/22-rdf-syntax-ns#"
   xmlns:svg="http://www.w3.org/2000/svg"
   xmlns="http://www.w3.org/2000/svg"
   xmlns:sodipodi="http://sodipodi.sourceforge.net/DTD/sodipodi-0.dtd"
   xmlns:inkscape="http://www.inkscape.org/namespaces/inkscape"
   width="260"
   height="260"
   viewBox="0 0 68.791661 68.791665"
   version="1.1"
   id="svg8"
   inkscape:version="0.92.3 (2405546, 2018-03-11)"
   sodipodi:docname="zwei-ampel.svg"
   inkscape:export-filename="/home/uni/extra/ytb/addon/ytf.png"
   inkscape:export-xdpi="96"
   inkscape:export-ydpi="96">
  <defs
     id="defs2" />
  <sodipodi:namedview
     id="base"
     pagecolor="#ffffff"
     bordercolor="#666666"
     borderopacity="1.0"
     inkscape:pageopacity="0.0"
     inkscape:pageshadow="2"
     inkscape:zoom="1.4"
     inkscape:cx="1.8514062"
     inkscape:cy="137.65049"
     inkscape:document-units="mm"
     inkscape:current-layer="layer1"
     showgrid="false"
     inkscape:window-width="1600"
     inkscape:window-height="851"
     inkscape:window-x="0"
     inkscape:window-y="25"
     inkscape:window-maximized="1"
     units="px" />
  <metadata
     id="metadata5">
    <rdf:RDF>
      <cc:Work
         rdf:about="">
        <dc:format>image/svg+xml</dc:format>
        <dc:type
           rdf:resource="http://purl.org/dc/dcmitype/StillImage" />
        <dc:title></dc:title>
      </cc:Work>
    </rdf:RDF>
  </metadata>
  <g
     inkscape:label="Layer 1"
     inkscape:groupmode="layer"
     id="layer1"
     transform="translate(-71.529888,-105.26603)">
    <g
       transform="matrix(0.35277777,0,0,-0.35277777,0,297)"
       inkscape:label="mwf2kc66m25v5h"
       id="g3740" />
    <path
       inkscape:connector-curvature="0"
       id="path3774"
       style="fill:#393536;fill-opacity:1;fill-rule:evenodd;stroke:none;stroke-width:0.02902886"
       d="m 104.22337,106.04245 h 5.8658 c 9.45309,0 17.18742,5.17263 17.18742,11.49473 v 44.44978 c 0,6.32208 -7.73433,11.49473 -17.18742,11.49473 h -5.8658 c -9.453078,0 -17.187417,-5.17265 -17.187417,-11.49473 v -44.44978 c 0,-6.3221 7.734339,-11.49473 17.187417,-11.49473" />
    <path
       inkscape:connector-curvature="0"
       id="path3776"
       style="fill:none;stroke:#231f20;stroke-width:1.15201032;stroke-linecap:butt;stroke-linejoin:miter;stroke-miterlimit:22.92560005;stroke-dasharray:none;stroke-opacity:1"
       d="m 104.22337,106.04245 h 5.8658 c 9.45309,0 17.18742,5.17263 17.18742,11.49473 v 44.44978 c 0,6.32208 -7.73433,11.49473 -17.18742,11.49473 h -5.8658 c -9.453078,0 -17.187417,-5.17265 -17.187417,-11.49473 v -44.44978 c 0,-6.3221 7.734339,-11.49473 17.187417,-11.49473 z" />
    <path
       inkscape:connector-curvature="0"
       id="path3778"
       style="fill:#656263;fill-opacity:1;fill-rule:evenodd;stroke:none;stroke-width:0.02902886"
       d="m 104.22337,106.04245 h 5.8658 c 4.42145,0 8.46628,1.13167 11.52005,2.98313 l -28.840578,61.51164 c -3.513092,-2.10846 -5.732689,-5.16421 -5.732689,-8.55026 v -44.44978 c 0,-6.3221 7.734339,-11.49473 17.187417,-11.49473" />
    <path
       inkscape:connector-curvature="0"
       id="path3822"
       style="fill:none;stroke:#000000;stroke-width:1.15201032;stroke-linecap:butt;stroke-linejoin:miter;stroke-miterlimit:22.92560005;stroke-dasharray:none;stroke-opacity:1"
       d="m 104.22337,106.04245 h 5.8658 c 9.45309,0 17.18742,5.17263 17.18742,11.49473 v 44.44978 c 0,6.32208 -7.73433,11.49473 -17.18742,11.49473 h -5.8658 c -9.453078,0 -17.187417,-5.17265 -17.187417,-11.49473 v -44.44978 c 0,-6.3221 7.734339,-11.49473 17.187417,-11.49473 z" />
    <path
       inkscape:connector-curvature="0"
       id="path3824"
       style="fill:none;stroke:#ffffff;stroke-width:0.07620001;stroke-linecap:butt;stroke-linejoin:miter;stroke-miterlimit:22.92560005;stroke-dasharray:none;stroke-opacity:1"
       d="M 35.060474,82.596069 H 149.39192 V 196.92774 H 35.060474 Z" />
    <path
       inkscape:connector-curvature="0"
       id="path3788"
       style="fill:#a7a5a6;fill-opacity:1;fill-rule:evenodd;stroke:none;stroke-width:0.03527778"
       d="m 106.84318,111.87491 c 7.3145,0 13.24646,5.78662 13.24646,12.92226 0,7.13563 -5.93196,12.92225 -13.24646,12.92225 -7.314493,0 -13.246103,-5.78662 -13.246103,-12.92225 0,-7.13564 5.93161,-12.92226 13.246103,-12.92226" />
    <path
       inkscape:connector-curvature="0"
       id="path3790"
       style="fill:none;stroke:#231f20;stroke-width:0.24999952;stroke-linecap:butt;stroke-linejoin:miter;stroke-miterlimit:22.92560005;stroke-dasharray:none;stroke-opacity:1"
       d="m 106.84318,111.87491 c 7.3145,0 13.24646,5.78662 13.24646,12.92226 0,7.13563 -5.93196,12.92225 -13.24646,12.92225 -7.314493,0 -13.246103,-5.78662 -13.246103,-12.92225 0,-7.13564 5.93161,-12.92226 13.246103,-12.92226 z" />
    <path
       inkscape:connector-curvature="0"
       id="path3796"
       style="fill:#000000;fill-opacity:1;fill-rule:evenodd;stroke:none;stroke-width:0.03527778"
       d="m 106.84318,112.52261 c 6.95678,0 12.59876,5.64198 12.59876,12.59841 0,6.95677 -5.64198,12.59875 -12.59876,12.59875 -6.956423,0 -12.598403,-5.64198 -12.598403,-12.59875 0,-6.95643 5.64198,-12.59841 12.598403,-12.59841" />
    <path
       inkscape:connector-curvature="0"
       id="path3798"
       style="fill:#ed1c24;fill-opacity:1;fill-rule:evenodd;stroke:none;stroke-width:0.03527778"
       d="m 106.84318,113.1234 c 6.62517,0 11.99798,5.3728 11.99798,11.99762 0,6.62516 -5.37281,11.99797 -11.99798,11.99797 -6.62481,0 -11.997623,-5.37281 -11.997623,-11.99797 0,-6.62482 5.372813,-11.99762 11.997623,-11.99762" />
    <path
       inkscape:connector-curvature="0"
       id="path3800"
       style="fill:#ec373d;fill-opacity:1;fill-rule:evenodd;stroke:none;stroke-width:0.03527778"
       d="m 106.84318,113.50475 c 4.15714,0 7.52793,2.51037 7.52793,5.60528 0,3.09492 -3.37079,5.60529 -7.52793,5.60529 -4.15642,0 -7.527573,-2.51037 -7.527573,-5.60529 0,-3.09491 3.371153,-5.60528 7.527573,-5.60528" />
    <path
       inkscape:connector-curvature="0"
       id="path3802"
       style="fill:#f27474;fill-opacity:1;fill-rule:evenodd;stroke:none;stroke-width:0.03527778"
       d="m 104.45347,135.45705 c -5.026733,-1.14335 -8.780643,-5.64056 -8.780643,-11.01301 0,-2.12232 0.58667,-4.10846 1.60514,-5.80496 -0.53446,1.31339 -0.83009,2.7499 -0.83009,4.25485 0,8.02816 8.005593,7.98195 8.005593,12.56312" />
    <path
       inkscape:connector-curvature="0"
       id="path3804"
       style="fill:#f3a19b;fill-opacity:1;fill-rule:evenodd;stroke:none;stroke-width:0.03527778"
       d="m 117.47027,127.96617 c 1.08056,-4.3247 -0.47167,-9.06745 -4.2912,-11.86039 -1.10243,-0.8061 -2.30222,-1.38289 -3.54259,-1.73955 -1.12889,1.5434 8.43457,6.99629 7.83379,13.59994" />
    <path
       inkscape:connector-curvature="0"
       id="path3780"
       style="fill:#a7a5a6;fill-opacity:1;fill-rule:evenodd;stroke:none;stroke-width:0.03527778"
       d="m 106.90247,140.80624 c 7.31449,0 13.24645,5.78661 13.24645,12.92218 0,7.13564 -5.93196,12.92228 -13.24645,12.92228 -7.314502,0 -13.246102,-5.78664 -13.246102,-12.92228 0,-7.13557 5.9316,-12.92218 13.246102,-12.92218" />
    <path
       inkscape:connector-curvature="0"
       id="path3782"
       style="fill:none;stroke:#231f20;stroke-width:0.24999952;stroke-linecap:butt;stroke-linejoin:miter;stroke-miterlimit:22.92560005;stroke-dasharray:none;stroke-opacity:1"
       d="m 106.90247,140.80624 c 7.31449,0 13.24645,5.78661 13.24645,12.92218 0,7.13564 -5.93196,12.92228 -13.24645,12.92228 -7.314502,0 -13.246102,-5.78664 -13.246102,-12.92228 0,-7.13557 5.9316,-12.92218 13.246102,-12.92218 z" />
    <path
       inkscape:connector-curvature="0"
       id="path3792"
       style="fill:#000000;fill-opacity:1;fill-rule:evenodd;stroke:none;stroke-width:0.03527778"
       d="m 106.90247,141.45394 c 6.95678,0 12.59875,5.64197 12.59875,12.59847 0,6.95688 -5.64197,12.59858 -12.59875,12.59858 -6.956432,0 -12.598402,-5.6417 -12.598402,-12.59858 0,-6.9565 5.64197,-12.59847 12.598402,-12.59847" />
    <path
       inkscape:connector-curvature="0"
       id="path3814"
       style="fill:#00a650;fill-opacity:1;fill-rule:evenodd;stroke:none;stroke-width:0.03527778"
       d="m 106.90247,142.05472 c 6.62517,0 11.99797,5.3728 11.99797,11.99769 0,6.6252 -5.3728,11.9979 -11.99797,11.9979 -6.62481,0 -11.997622,-5.3727 -11.997622,-11.9979 0,-6.62489 5.372812,-11.99769 11.997622,-11.99769" />
    <path
       inkscape:connector-curvature="0"
       id="path3816"
       style="fill:#4abc40;fill-opacity:1;fill-rule:evenodd;stroke:none;stroke-width:0.03527778"
       d="m 106.90247,142.43607 c 4.15678,0 7.52793,2.51002 7.52793,5.60518 0,3.09538 -3.37115,5.60547 -7.52793,5.60547 -4.15643,0 -7.527572,-2.51009 -7.527572,-5.60547 0,-3.09516 3.371142,-5.60518 7.527572,-5.60518" />
    <path
       inkscape:connector-curvature="0"
       id="path3818"
       style="fill:#4fbf50;fill-opacity:1;fill-rule:evenodd;stroke:none;stroke-width:0.03527778"
       d="m 104.51275,164.38852 c -5.026732,-1.1435 -8.780642,-5.6406 -8.780642,-11.01316 0,-2.12245 0.58667,-4.10835 1.60514,-5.80496 -0.53446,1.31353 -0.83008,2.74987 -0.83008,4.25496 0,8.02816 8.005582,7.98202 8.005582,12.56316" />
    <path
       inkscape:connector-curvature="0"
       id="path3820"
       style="fill:#4fc06a;fill-opacity:1;fill-rule:evenodd;stroke:none;stroke-width:0.03527778"
       d="m 117.52955,156.89749 c 1.08056,-4.3247 -0.47167,-9.06748 -4.29119,-11.86039 -1.10243,-0.80609 -2.30223,-1.38289 -3.5426,-1.73954 -1.12888,1.5434 8.43457,6.99639 7.83379,13.59993" />
  </g>
</svg>
